<svg width="79" height="42" viewBox="0 0 79 42" fill="none" xmlns="http://www.w3.org/2000/svg">
<path d="M21.3936 28.6934C25.4672 28.6934 28.7696 25.3911 28.7696 21.3174C28.7696 17.2438 25.4672 13.9414 21.3936 13.9414C17.3199 13.9414 14.0176 17.2438 14.0176 21.3174C14.0176 25.3911 17.3199 28.6934 21.3936 28.6934Z" fill="#310083"/>
<path d="M76.7361 25.1565C75.7509 23.7045 74.4077 22.5729 72.7089 21.7665C74.8057 19.5193 76.0861 16.5057 76.0861 13.1921C76.0861 6.24528 70.4553 0.613281 63.5085 0.613281H41.9529L41.7481 20.0245L50.9305 15.9273L51.0025 14.5361L51.0629 11.3633L51.1181 8.50608H60.2973C70.2465 8.00768 69.0057 15.1293 65.2729 17.2017C64.9481 17.3825 63.2085 18.1837 60.8101 19.2721C59.0061 20.0889 56.8289 21.0701 54.6005 22.0709C48.3733 24.8673 41.7469 27.8197 41.7469 27.8197C34.4113 30.4429 28.2237 32.6681 27.7569 32.8853C26.0845 33.6637 24.2573 34.0533 22.2817 34.0533C20.4169 34.0533 18.7081 33.7493 17.1505 33.1433C15.5897 32.5321 14.2413 31.6597 13.1025 30.5201C11.9585 29.3773 11.0781 28.0285 10.4469 26.4721C9.82012 24.9105 9.50892 23.1813 9.50892 21.2801C9.50892 19.3789 9.82012 17.6489 10.4469 16.0913C11.0777 14.5305 11.9585 13.1821 13.1025 12.0433C14.2413 10.8993 15.5897 10.0273 17.1505 9.41608C18.5641 8.86648 20.1017 8.56568 21.7689 8.51448H34.6697V0.634481H21.8265C18.7081 0.634481 15.8397 1.13808 13.2133 2.14608C10.5901 3.15408 8.29932 4.58848 6.34052 6.45328C4.38612 8.31808 2.86612 10.5025 1.77972 13.0097C0.69852 15.5221 0.15332 18.2757 0.15332 21.2801C0.15332 24.2845 0.69852 27.0413 1.77972 29.5485C2.86612 32.0569 4.37372 34.2453 6.31652 36.1057C8.25452 37.9705 10.5409 39.4049 13.1841 40.4129C15.8269 41.4209 18.6873 41.9245 21.7689 41.9245C25.2653 41.9245 28.4117 41.3133 31.2065 40.1005C31.8541 39.8185 36.1445 38.1993 41.7469 36.1017V41.9245H62.3913C67.6365 41.9245 71.6113 40.9657 74.3077 39.0433C77.0081 37.1265 78.3609 34.4541 78.3609 31.0317C78.3609 28.7125 77.8157 26.7537 76.7345 25.1557L76.7361 25.1565ZM69.0065 30.0621C69.0065 31.7753 68.3881 32.1065 67.1545 32.8857C65.9177 33.6641 64.1021 34.0537 61.7089 34.0537H50.9313V31.8485C55.8765 30.0057 59.8149 28.2549 64.2853 26.7213C66.5617 25.9401 68.9913 27.6093 69.0073 30.0149V30.0621H69.0065Z" fill="#310083"/>
</svg>
