<svg width="79" height="55" viewBox="0 0 79 55" fill="none" xmlns="http://www.w3.org/2000/svg">
<path d="M21.3936 28.6934C25.4672 28.6934 28.7696 25.3911 28.7696 21.3174C28.7696 17.2438 25.4672 13.9414 21.3936 13.9414C17.3199 13.9414 14.0176 17.2438 14.0176 21.3174C14.0176 25.3911 17.3199 28.6934 21.3936 28.6934Z" fill="white"/>
<path d="M76.7361 25.1565C75.7509 23.7045 74.4077 22.5729 72.7089 21.7665C74.8057 19.5193 76.0861 16.5057 76.0861 13.1921C76.0861 6.24528 70.4553 0.613281 63.5085 0.613281H41.9529L41.7481 20.0245L50.9305 15.9273L51.0025 14.5361L51.0629 11.3633L51.1181 8.50608H60.2973C70.2465 8.00768 69.0057 15.1293 65.2729 17.2017C64.9481 17.3825 63.2085 18.1837 60.8101 19.2721C59.0061 20.0889 56.8289 21.0701 54.6005 22.0709C48.3733 24.8673 41.7469 27.8197 41.7469 27.8197C34.4113 30.4429 28.2237 32.6681 27.7569 32.8853C26.0845 33.6637 24.2573 34.0533 22.2817 34.0533C20.4169 34.0533 18.7081 33.7493 17.1505 33.1433C15.5897 32.5321 14.2413 31.6597 13.1025 30.5201C11.9585 29.3773 11.0781 28.0285 10.4469 26.4721C9.82012 24.9105 9.50892 23.1813 9.50892 21.2801C9.50892 19.3789 9.82012 17.6489 10.4469 16.0913C11.0777 14.5305 11.9585 13.1821 13.1025 12.0433C14.2413 10.8993 15.5897 10.0273 17.1505 9.41608C18.5641 8.86648 20.1017 8.56568 21.7689 8.51448H34.6697V0.634481H21.8265C18.7081 0.634481 15.8397 1.13808 13.2133 2.14608C10.5901 3.15408 8.29932 4.58848 6.34052 6.45328C4.38612 8.31808 2.86612 10.5025 1.77972 13.0097C0.69852 15.5221 0.15332 18.2757 0.15332 21.2801C0.15332 24.2845 0.69852 27.0413 1.77972 29.5485C2.86612 32.0569 4.37372 34.2453 6.31652 36.1057C8.25452 37.9705 10.5409 39.4049 13.1841 40.4129C15.8269 41.4209 18.6873 41.9245 21.7689 41.9245C25.2653 41.9245 28.4117 41.3133 31.2065 40.1005C31.8541 39.8185 36.1445 38.1993 41.7469 36.1017V41.9245H62.3913C67.6365 41.9245 71.6113 40.9657 74.3077 39.0433C77.0081 37.1265 78.3609 34.4541 78.3609 31.0317C78.3609 28.7125 77.8157 26.7537 76.7345 25.1557L76.7361 25.1565ZM69.0065 30.0621C69.0065 31.7753 68.3881 32.1065 67.1545 32.8857C65.9177 33.6641 64.1021 34.0537 61.7089 34.0537H50.9313V31.8485C55.8765 30.0057 59.8149 28.2549 64.2853 26.7213C66.5617 25.9401 68.9913 27.6093 69.0073 30.0149V30.0621H69.0065Z" fill="white"/>
<path d="M0.154297 50.5066V49.6054C0.154297 46.915 1.6823 45.5826 5.7703 45.5698C9.8323 45.5698 11.3603 46.7974 11.3863 49.2526V49.4354H8.8131V49.2654C8.8131 48.1682 7.8859 47.7242 5.7699 47.7242C3.6539 47.7242 2.7139 48.2334 2.7139 49.7094V50.4014C2.7139 51.9034 3.6803 52.4258 5.7699 52.4258C7.8595 52.4258 8.8131 51.9686 8.8131 50.8322V50.6882H11.3863V50.845C11.3863 53.3398 9.8319 54.5542 5.7703 54.5674C1.6823 54.5674 0.154297 53.2222 0.154297 50.5054V50.5066Z" fill="white"/>
<path d="M12.6924 50.5071V49.6059C12.6924 46.9155 14.4816 45.5703 18.5176 45.5571C22.5532 45.5571 24.3428 46.9155 24.3428 49.6059V50.5071C24.3428 53.2239 22.5536 54.5819 18.5176 54.5819C14.4816 54.5951 12.6924 53.2239 12.6924 50.5071ZM21.7564 50.3763V49.7363C21.7564 48.2475 20.8028 47.7251 18.5172 47.7251C16.2316 47.7251 15.278 48.2475 15.278 49.7363V50.3763C15.278 51.8783 16.2444 52.4139 18.5172 52.4139C20.79 52.4139 21.7564 51.8783 21.7564 50.3763Z" fill="white"/>
<path d="M39.4797 51.7737V51.8781C39.4797 53.4457 38.4089 54.3989 35.8617 54.3989H29.2529V45.7397H36.0185C38.0297 45.7397 38.8657 46.4057 38.8657 47.7509V47.8425C38.8529 48.7437 38.4217 49.4229 37.6121 49.7625C38.8397 49.9977 39.4537 50.7029 39.4797 51.7741V51.7737ZM36.3453 48.4301C36.3453 47.9861 36.0973 47.6985 35.3265 47.6985H31.7349V49.3049H35.2221C36.0709 49.3049 36.3453 48.9785 36.3453 48.5341V48.4297V48.4301ZM36.8153 51.4077C36.8021 50.8853 36.4497 50.5977 35.5221 50.5977H31.7345V52.4393H35.5485C36.4497 52.4393 36.8153 52.0737 36.8153 51.5253V51.4077Z" fill="white"/>
<path d="M43.1238 49.4486C43.6722 48.4558 44.7954 47.9466 46.9246 48.025V50.0234C43.8686 50.0102 43.3066 50.4282 43.3066 51.7474V54.3986H41.0078V48.1818H43.1238V49.4486Z" fill="white"/>
<path d="M56.1714 51.1338V54.399H54.0558V53.589C53.4942 54.2942 52.397 54.5426 50.9474 54.5426H50.1114C47.9434 54.5426 47.251 53.9286 47.251 52.7926V52.675C47.251 51.6302 47.917 51.0294 49.4582 51.0294H53.9118C53.899 50.1282 53.4546 49.7886 51.8222 49.7886C50.1898 49.7886 49.7978 50.1022 49.7978 50.5722V50.7026H47.5514V50.585C47.5514 49.1614 48.531 47.999 51.8354 47.999C55.1398 47.999 56.1714 49.0962 56.1714 51.1338ZM51.8874 53.1058C53.0366 53.1058 53.9118 52.8446 53.9118 52.1786V52.0346H50.2546C49.719 52.0346 49.5494 52.2046 49.5494 52.4394V52.5178C49.5494 52.8838 49.7454 53.1058 51.0122 53.1058H51.8874Z" fill="white"/>
<path d="M67.2594 51.2509V54.3985H64.9738V51.6425C64.9738 50.2581 64.3078 49.8665 62.845 49.8665C61.3822 49.8665 60.3506 50.3757 60.3506 51.7341V54.3985H58.0518V48.1817H60.1414V49.4353C60.7814 48.4817 61.9438 48.0117 63.511 48.0117C65.849 48.0117 67.2594 48.7953 67.2594 51.2509Z" fill="white"/>
<path d="M76.0763 45.4785H78.3619V54.3989H76.2851V53.5761C75.6975 54.2029 74.6395 54.5689 72.9023 54.5689C69.8983 54.5689 68.7227 53.6025 68.7227 51.6301V50.9641C68.7227 48.9921 69.8983 48.0125 72.9151 48.0125C74.5475 48.0125 75.5143 48.3389 76.0759 48.9397V45.4785H76.0763ZM76.0763 51.5909V51.0029C76.0763 50.1933 75.5279 49.8405 73.6339 49.8405C71.6095 49.8405 71.1263 50.1933 71.1263 51.0029V51.5645C71.1263 52.3873 71.6227 52.7401 73.6339 52.7401C75.5275 52.7401 76.0763 52.3741 76.0763 51.5905V51.5909Z" fill="white"/>
</svg>
